HIERARCHY
ROOT Hips
{
	OFFSET 0.000000 83.214638 0.000000
	CHANNELS 6 Xposition Yposition Zposition Xrotation Yrotation Zrotation
	JOINT Pelvis
	{
		OFFSET 0.000000 0.000000 0.000000
		CHANNELS 3 Xrotation Yrotation Zrotation
		JOINT LeftUpLeg
		{
			OFFSET 8.479700 -4.795502 -0.379100
			CHANNELS 3 Xrotation Yrotation Zrotation
			JOINT LeftLeg
			{
				OFFSET 0.024144 -32.555107 0.112900
				CHANNELS 3 Xrotation Yrotation Zrotation
				JOINT LeftFoot
				{
					OFFSET -0.024144 -32.638630 -3.012600
					CHANNELS 3 Xrotation Yrotation Zrotation
					JOINT LeftToeBase
					{
						OFFSET 0.970200 -13.225400 11.864200
						CHANNELS 3 Xrotation Yrotation Zrotation
						End Site
						{
							OFFSET 0.000000 12.319262 0.000000
						}
					}
					JOINT LFootTongue
					{
						OFFSET 1.142400 -1.059800 6.665200
						CHANNELS 3 Xrotation Yrotation Zrotation
						End Site
						{
							OFFSET 0.000000 12.319262 0.000000
						}
					}
				}
				JOINT LeftPantLeg
				{
					OFFSET 0.918482 -16.533964 -2.284700
					CHANNELS 3 Xrotation Yrotation Zrotation
					End Site
					{
						OFFSET 0.350399 24.744368 0.000000
					}
				}
			}
		}
		JOINT RightUpLeg
		{
			OFFSET -8.479700 -4.795502 -0.379100
			CHANNELS 3 Xrotation Yrotation Zrotation
			JOINT RightLeg
			{
				OFFSET -0.023144 -32.555092 0.112900
				CHANNELS 3 Xrotation Yrotation Zrotation
				JOINT RightFoot
				{
					OFFSET 0.023144 -32.638641 -3.012700
					CHANNELS 3 Xrotation Yrotation Zrotation
					JOINT RightToeBase
					{
						OFFSET -0.970200 -13.225400 11.864200
						CHANNELS 3 Xrotation Yrotation Zrotation
						End Site
						{
							OFFSET 0.000000 12.319244 0.000000
						}
					}
					JOINT RFootTongue
					{
						OFFSET -1.142200 -1.059800 6.665200
						CHANNELS 3 Xrotation Yrotation Zrotation
						End Site
						{
							OFFSET 0.000000 12.319243 0.000000
						}
					}
				}
				JOINT RightPantLeg
				{
					OFFSET -0.919482 -16.533978 -2.284800
					CHANNELS 3 Xrotation Yrotation Zrotation
					End Site
					{
						OFFSET -0.350400 24.744419 0.000000
					}
				}
			}
		}
	}
	JOINT Spine
	{
		OFFSET 0.000000 7.722000 1.166200
		CHANNELS 3 Xrotation Yrotation Zrotation
		JOINT Spine1
		{
			OFFSET 0.000000 12.024101 0.248800
			CHANNELS 3 Xrotation Yrotation Zrotation
			JOINT Spine2
			{
				OFFSET 0.000000 11.502998 -0.491200
				CHANNELS 3 Xrotation Yrotation Zrotation
				JOINT Neck
				{
					OFFSET 0.000000 18.430702 -3.123100
					CHANNELS 3 Xrotation Yrotation Zrotation
					JOINT Head
					{
						OFFSET 0.000000 9.051102 1.034000
						CHANNELS 3 Xrotation Yrotation Zrotation
						JOINT HairB
						{
							OFFSET 0.208400 24.786102 24.822300
							CHANNELS 3 Xrotation Yrotation Zrotation
							End Site
							{
								OFFSET 0.000000 32.263779 0.000000
							}
						}
						JOINT HairA
						{
							OFFSET -7.081100 24.428299 23.196600
							CHANNELS 3 Xrotation Yrotation Zrotation
							End Site
							{
								OFFSET 0.000000 32.263779 0.000000
							}
						}
						JOINT Hat
						{
							OFFSET 16.728800 15.048294 -15.439601
							CHANNELS 3 Xrotation Yrotation Zrotation
							End Site
							{
								OFFSET 0.000000 32.263779 0.000000
							}
						}
					}
				}
				JOINT LeftShoulder
				{
					OFFSET 6.197800 13.665199 -4.064700
					CHANNELS 3 Xrotation Yrotation Zrotation
					JOINT LeftArm
					{
						OFFSET 7.778100 -0.187103 -1.709300
						CHANNELS 3 Xrotation Yrotation Zrotation
						JOINT LeftForeArm
						{
							OFFSET 22.049376 0.000000 0.000000
							CHANNELS 3 Xrotation Yrotation Zrotation
							JOINT LeftHand
							{
								OFFSET 23.009392 0.000000 0.000000
								CHANNELS 3 Xrotation Yrotation Zrotation
								JOINT LeftHandThumb1
								{
									OFFSET 3.507191 -2.063065 3.133727
									CHANNELS 3 Xrotation Yrotation Zrotation
									JOINT LeftHandThumb2
									{
										OFFSET 3.101337 -1.790558 1.790558
										CHANNELS 3 Xrotation Yrotation Zrotation
										JOINT LeftHandThumb3
										{
											OFFSET 3.058640 -1.765907 1.765906
											CHANNELS 3 Xrotation Yrotation Zrotation
											End Site
											{
												OFFSET -0.415260 3.926476 -0.049563
											}
										}
									}
								}
								JOINT LeftHandIndex1
								{
									OFFSET 11.334419 -0.901459 3.706815
									CHANNELS 3 Xrotation Yrotation Zrotation
									JOINT LeftHandIndex2
									{
										OFFSET 3.283112 0.000000 0.000000
										CHANNELS 3 Xrotation Yrotation Zrotation
										JOINT LeftHandIndex3
										{
											OFFSET 3.323853 0.000000 0.000000
											CHANNELS 3 Xrotation Yrotation Zrotation
											End Site
											{
												OFFSET -1.135597 3.097809 0.402452
											}
										}
									}
								}
								JOINT LeftHandMiddle1
								{
									OFFSET 11.335861 0.000000 0.000000
									CHANNELS 3 Xrotation Yrotation Zrotation
									JOINT LeftHandMiddle2
									{
										OFFSET 3.410492 0.000000 0.000000
										CHANNELS 3 Xrotation Yrotation Zrotation
										JOINT LeftHandMiddle3
										{
											OFFSET 3.312172 0.000000 0.000000
											CHANNELS 3 Xrotation Yrotation Zrotation
											End Site
											{
												OFFSET -1.150200 3.080154 0.400270
											}
										}
									}
								}
								JOINT LeftHandRing1
								{
									OFFSET 11.514786 -0.013176 -3.003090
									CHANNELS 3 Xrotation Yrotation Zrotation
									JOINT LeftHandRing2
									{
										OFFSET 3.053307 0.000000 0.000000
										CHANNELS 3 Xrotation Yrotation Zrotation
										JOINT LeftHandRing3
										{
											OFFSET 3.295807 0.000000 0.000000
											CHANNELS 3 Xrotation Yrotation Zrotation
											End Site
											{
												OFFSET -1.281006 3.013344 0.375733
											}
										}
									}
								}
								JOINT LeftHandPinky1
								{
									OFFSET 10.518692 -0.960396 -5.730441
									CHANNELS 3 Xrotation Yrotation Zrotation
									JOINT LeftHandPinky2
									{
										OFFSET 2.861649 0.000000 0.000000
										CHANNELS 3 Xrotation Yrotation Zrotation
										JOINT LeftHandPinky3
										{
											OFFSET 2.863380 0.000000 0.000000
											CHANNELS 3 Xrotation Yrotation Zrotation
											End Site
											{
												OFFSET -0.843597 2.711159 0.369971
											}
										}
									}
								}
							}
							JOINT LSleeve
							{
								OFFSET 6.676277 -0.344902 -1.011730
								CHANNELS 3 Xrotation Yrotation Zrotation
								End Site
								{
									OFFSET 0.000000 14.885353 0.000000
								}
							}
						}
					}
				}
				JOINT RightShoulder
				{
					OFFSET -6.197800 13.665199 -4.064700
					CHANNELS 3 Xrotation Yrotation Zrotation
					JOINT RightArm
					{
						OFFSET -7.778100 -0.187103 -1.709300
						CHANNELS 3 Xrotation Yrotation Zrotation
						JOINT RightForeArm
						{
							OFFSET -22.049376 0.000000 0.000000
							CHANNELS 3 Xrotation Yrotation Zrotation
							JOINT RightHand
							{
								OFFSET -23.009392 0.000000 0.000000
								CHANNELS 3 Xrotation Yrotation Zrotation
								JOINT RightHandThumb1
								{
									OFFSET -3.507191 -2.063065 3.133727
									CHANNELS 3 Xrotation Yrotation Zrotation
									JOINT RightHandThumb2
									{
										OFFSET -3.101337 -1.790558 1.790558
										CHANNELS 3 Xrotation Yrotation Zrotation
										JOINT RightHandThumb3
										{
											OFFSET -3.058640 -1.765907 1.765906
											CHANNELS 3 Xrotation Yrotation Zrotation
											End Site
											{
												OFFSET 0.415260 3.926476 -0.049563
											}
										}
									}
								}
								JOINT RightHandIndex1
								{
									OFFSET -11.334419 -0.901459 3.706815
									CHANNELS 3 Xrotation Yrotation Zrotation
									JOINT RightHandIndex2
									{
										OFFSET -3.283112 0.000000 0.000000
										CHANNELS 3 Xrotation Yrotation Zrotation
										JOINT RightHandIndex3
										{
											OFFSET -3.323853 0.000000 0.000000
											CHANNELS 3 Xrotation Yrotation Zrotation
											End Site
											{
												OFFSET 1.135597 3.097809 0.402452
											}
										}
									}
								}
								JOINT RightHandMiddle1
								{
									OFFSET -11.335861 0.000000 0.000000
									CHANNELS 3 Xrotation Yrotation Zrotation
									JOINT RightHandMiddle2
									{
										OFFSET -3.410492 0.000000 0.000000
										CHANNELS 3 Xrotation Yrotation Zrotation
										JOINT RightHandMiddle3
										{
											OFFSET -3.312172 0.000000 0.000000
											CHANNELS 3 Xrotation Yrotation Zrotation
											End Site
											{
												OFFSET 1.150200 3.080154 0.400270
											}
										}
									}
								}
								JOINT RightHandRing1
								{
									OFFSET -11.514786 -0.013176 -3.003090
									CHANNELS 3 Xrotation Yrotation Zrotation
									JOINT RightHandRing2
									{
										OFFSET -3.053307 0.000000 0.000000
										CHANNELS 3 Xrotation Yrotation Zrotation
										JOINT RightHandRing3
										{
											OFFSET -3.295807 0.000000 0.000000
											CHANNELS 3 Xrotation Yrotation Zrotation
											End Site
											{
												OFFSET 1.281006 3.013344 0.375733
											}
										}
									}
								}
								JOINT RightHandPinky1
								{
									OFFSET -10.518692 -0.960396 -5.730441
									CHANNELS 3 Xrotation Yrotation Zrotation
									JOINT RightHandPinky2
									{
										OFFSET -2.861649 0.000000 0.000000
										CHANNELS 3 Xrotation Yrotation Zrotation
										JOINT RightHandPinky3
										{
											OFFSET -2.863380 0.000000 0.000000
											CHANNELS 3 Xrotation Yrotation Zrotation
											End Site
											{
												OFFSET 0.843597 2.711159 0.369971
											}
										}
									}
								}
							}
							JOINT RSleeve
							{
								OFFSET -6.676277 -0.344902 -1.011730
								CHANNELS 3 Xrotation Yrotation Zrotation
								End Site
								{
									OFFSET 0.000000 14.885353 0.000000
								}
							}
						}
					}
				}
				JOINT Backpack
				{
					OFFSET 0.000000 -2.471497 36.677502
					CHANNELS 3 Xrotation Yrotation Zrotation
					End Site
					{
						OFFSET 0.000000 20.427315 0.000000
					}
				}
				JOINT Hood
				{
					OFFSET 0.000000 18.754097 -10.431000
					CHANNELS 3 Xrotation Yrotation Zrotation
					JOINT Hood1
					{
						OFFSET 0.000000 -5.011002 -7.685901
						CHANNELS 3 Xrotation Yrotation Zrotation
						End Site
						{
							OFFSET 0.000000 9.175140 0.000000
						}
					}
				}
				JOINT LHoodieString
				{
					OFFSET 5.250500 16.397697 3.089900
					CHANNELS 3 Xrotation Yrotation Zrotation
					JOINT LHoodieString1
					{
						OFFSET 0.257700 -6.364304 3.694600
						CHANNELS 3 Xrotation Yrotation Zrotation
						JOINT LHoodieString2
						{
							OFFSET 0.000000 -9.643799 2.679100
							CHANNELS 3 Xrotation Yrotation Zrotation
							End Site
							{
								OFFSET 0.000000 10.009018 0.000000
							}
						}
					}
				}
				JOINT RHoodieString
				{
					OFFSET -5.250500 16.397697 3.089900
					CHANNELS 3 Xrotation Yrotation Zrotation
					JOINT RHoodieString1
					{
						OFFSET -0.257700 -6.364304 3.694600
						CHANNELS 3 Xrotation Yrotation Zrotation
						JOINT RHoodieString2
						{
							OFFSET 0.000000 -9.643799 2.679100
							CHANNELS 3 Xrotation Yrotation Zrotation
							End Site
							{
								OFFSET 0.000000 10.009018 0.000000
							}
						}
					}
				}
			}
			JOINT LBackpack_Strap
			{
				OFFSET 15.223200 -7.719803 -6.610900
				CHANNELS 3 Xrotation Yrotation Zrotation
				End Site
				{
					OFFSET 0.000000 16.040596 0.000000
				}
			}
			JOINT RBackpack_Strap
			{
				OFFSET -15.223000 -7.719803 -6.610900
				CHANNELS 3 Xrotation Yrotation Zrotation
				End Site
				{
					OFFSET 0.000000 16.040596 0.000000
				}
			}
		}
	}
	JOINT BoyFacialAnim_Joint
	{
		OFFSET 1.000000 -82.208099 -1.550900
		CHANNELS 3 Xrotation Yrotation Zrotation
		End Site
		{
			OFFSET 0.000000 30.012791 0.000000
		}
	}
}
MOTION
Frames: 5
Frame Time: 0.033333
-5.915392 48.138710 331.297668 28.698160 0.890196 -2.673521 0.000001 0.000000 -0.000000 -94.732108 -17.163709 12.943938 118.071363 -0.004089 -8.701571 -46.682741 12.550243 -12.876804 -0.000000 0.000002 0.000000 -0.000000 0.000002 0.000000 0.000000 0.000000 0.000001 -89.158284 3.937449 -14.755691 116.571604 13.354347 5.243763 -59.006639 -2.199503 -1.611591 -0.000000 -0.000000 -0.000000 -0.000000 -0.000000 -0.000000 0.000004 -0.000000 -0.000000 19.706031 -0.183796 -0.936389 23.450626 -0.513862 -1.807284 11.609197 -0.131192 -1.874323 -0.274394 -3.509148 3.287370 -16.927270 3.249030 -2.613027 -0.000001 0.000000 -0.000000 -0.000001 0.000000 -0.000000 -0.000001 0.000000 -0.000000 -4.774731 -37.526531 9.864290 -64.248393 -31.706042 -57.874331 -0.721582 -41.644299 4.175441 -52.581197 29.846188 28.766192 50.624498 -18.719032 25.736711 -0.391405 14.224368 -7.327864 0.000001 -0.000001 -0.000000 12.479771 -11.234672 -38.180006 1.451783 -5.592370 -71.700396 0.000001 -0.000002 -0.000002 -0.070727 -3.012183 -69.287058 -0.178269 -2.418167 -48.626535 0.000001 0.000001 0.000000 -6.716329 -1.318059 -78.271249 -0.248909 -0.498974 -21.957506 -0.000002 -0.000000 -0.000002 -13.456237 5.819299 -75.588474 -0.142304 -0.483126 -23.254916 0.000001 -0.000003 -0.000001 0.000000 -0.000001 -0.000003 27.103487 22.519333 -44.009320 -91.227019 13.423238 35.832894 -46.141162 20.841117 36.138808 -22.824235 -19.240860 -32.003855 55.149519 18.649577 -29.698199 -0.442566 -14.180481 7.312994 -0.000000 0.000001 0.000002 5.673324 7.585061 36.844325 1.050424 3.824471 68.900141 -0.000000 0.000001 0.000005 -0.125755 1.885993 45.000882 -1.168939 3.204725 68.417554 0.000002 0.000001 -0.000000 -5.312058 1.216605 58.508999 -0.745219 1.667541 48.011223 -0.000003 0.000001 0.000002 -7.756651 -9.376489 47.264089 -0.526228 1.541553 45.600365 -0.000000 -0.000001 0.000002 0.000002 0.000000 0.000001 -0.000000 -0.000000 -0.000000 -0.000000 -0.000000 -0.000000 -0.000000 -0.000000 -0.000000 -0.000000 -0.000000 -0.000000 -0.000000 -0.000000 -0.000000 -0.000000 -0.000000 -0.000000 -0.000000 -0.000000 -0.000000 -0.000000 -0.000000 -0.000000 -0.000000 -0.000000 -0.000000 0.000001 0.000000 -0.000000 0.000001 0.000000 -0.000000 0.000001 0.000000 -0.000000 
-5.853523 48.315666 330.708130 26.223512 -0.016898 -2.085984 0.000002 0.000000 -0.000000 -92.388260 -16.493232 13.768255 117.967462 0.316083 -8.692318 -46.253368 12.441961 -12.778552 -0.000000 0.000001 -0.000000 -0.000000 0.000001 0.000000 -0.000005 0.000000 -0.000001 -87.789330 4.812726 -13.660931 116.425724 13.253308 5.241253 -57.861927 -2.467057 -1.459174 -0.000001 -0.000000 -0.000000 -0.000001 -0.000000 -0.000000 0.000000 0.000000 -0.000000 19.581864 -0.125053 -0.940497 23.202692 -0.396266 -1.816342 11.361165 -0.014244 -1.858989 -3.340673 -4.893307 4.603538 -13.869916 3.736847 -3.106055 -0.000001 -0.000000 -0.000000 -0.000001 -0.000000 -0.000000 -0.000001 -0.000000 -0.000000 -9.446717 -36.073320 2.911436 -60.536704 -34.761664 -62.381190 26.166497 -36.673499 24.418300 -72.252883 32.411338 32.341089 52.181061 -19.083637 26.607924 -0.368920 14.246028 -7.339586 -0.000002 -0.000001 -0.000002 13.030696 -11.783710 -39.157492 1.357402 -5.851842 -73.160335 -0.000000 0.000002 -0.000001 0.100369 -2.911610 -62.170144 -0.305996 -2.561246 -52.119907 0.000002 -0.000002 0.000002 -6.496112 -1.250081 -70.002465 -0.323176 -0.839017 -29.041712 0.000001 -0.000000 -0.000000 -12.175366 4.556347 -58.288220 -0.143467 -0.522736 -24.069146 0.000000 0.000001 -0.000000 0.000000 0.000003 -0.000003 23.963015 21.757108 -38.550605 -98.180472 10.632952 45.131237 -43.038770 14.901325 32.972827 -10.787086 -19.801154 -26.625501 55.149526 18.649572 -29.698199 -0.442567 -14.180484 7.312996 -0.000000 0.000001 0.000004 5.673326 7.585063 36.844322 1.050419 3.824471 68.900141 -0.000000 0.000001 0.000002 -0.125753 1.885994 45.000882 -1.168935 3.204729 68.417561 0.000003 0.000001 0.000002 -5.312056 1.216608 58.508999 -0.745218 1.667543 48.011220 -0.000003 0.000000 0.000000 -7.756649 -9.376489 47.264089 -0.526226 1.541552 45.600368 0.000001 0.000001 0.000002 0.000000 0.000001 -0.000000 -0.000000 0.000000 -0.000000 -0.000000 0.000000 -0.000000 -0.000000 0.000000 -0.000000 -0.000000 0.000000 -0.000000 -0.000000 0.000000 -0.000000 0.000001 0.000000 -0.000000 -0.000000 0.000000 -0.000000 -0.000000 0.000000 -0.000000 0.000001 0.000000 -0.000000 -0.000001 0.000001 0.000000 -0.000001 0.000001 0.000000 0.000002 0.000000 -0.000000 
-5.757039 48.850922 330.173004 24.497693 -1.049319 -1.256522 -0.000002 -0.000000 -0.000000 -90.248054 -15.340484 14.381071 117.110533 1.153807 -8.724804 -45.568311 12.347896 -12.823826 -0.000000 -0.000001 0.000000 -0.000000 -0.000001 0.000000 -0.000001 0.000002 0.000001 -86.836143 5.846026 -12.592119 115.523511 13.156876 5.273621 -56.326617 -2.725616 -1.310079 -0.000000 0.000001 0.000000 -0.000000 0.000001 0.000000 -0.000004 0.000000 -0.000000 19.617700 0.055587 -0.967422 23.276112 -0.047968 -1.904073 11.434959 0.344650 -1.873249 -13.039218 -6.771678 5.439747 -7.885882 3.994562 -3.874973 -0.000002 -0.000000 -0.000000 -0.000002 -0.000000 -0.000000 -0.000002 -0.000000 -0.000000 -12.030407 -35.292093 -0.068687 -59.200883 -35.463387 -65.055161 42.814938 -26.760014 34.680064 -87.875049 35.720482 33.458617 52.602391 -19.174889 26.854330 -0.364249 14.250653 -7.342079 0.000001 -0.000001 -0.000001 13.176000 -11.903776 -39.363080 1.337167 -5.911819 -73.467974 -0.000001 0.000000 -0.000000 0.257337 -2.813907 -56.954533 -0.367472 -2.623948 -53.620666 -0.000000 -0.000001 -0.000002 -6.252957 -1.245422 -64.121850 -0.388599 -1.033208 -33.179929 -0.000001 0.000002 -0.000004 -11.397175 4.249800 -47.143058 -0.145577 -0.541553 -24.450115 -0.000001 -0.000001 -0.000000 0.000002 0.000001 0.000004 23.966367 21.424816 -38.393532 -102.139168 7.189392 48.424409 -41.448388 11.278714 29.409777 -5.167565 -20.198942 -22.570065 55.149529 18.649574 -29.698202 -0.442560 -14.180481 7.312994 -0.000001 -0.000002 0.000003 5.673326 7.585058 36.844322 1.050423 3.824473 68.900141 -0.000001 0.000002 0.000002 -0.125753 1.885990 45.000882 -1.168939 3.204724 68.417561 0.000001 -0.000000 0.000001 -5.312055 1.216605 58.508999 -0.745217 1.667544 48.011217 -0.000000 -0.000001 0.000004 -7.756649 -9.376491 47.264093 -0.526229 1.541553 45.600368 -0.000001 -0.000001 -0.000002 -0.000000 -0.000002 -0.000001 -0.000001 -0.000000 -0.000000 -0.000001 -0.000000 -0.000000 -0.000001 -0.000000 -0.000000 -0.000001 -0.000000 -0.000000 -0.000001 -0.000000 0.000000 -0.000001 0.000000 -0.000000 -0.000001 -0.000000 -0.000000 -0.000001 -0.000000 0.000000 -0.000001 0.000000 -0.000000 -0.000001 0.000000 0.000000 -0.000001 0.000000 0.000000 -0.000002 -0.000000 -0.000000 
-5.656008 49.397194 329.704834 23.728840 -1.996881 -0.305906 -0.000001 -0.000000 -0.000000 -89.040436 -14.022524 14.703615 115.822482 0.329815 -8.890511 -45.108403 13.479488 -11.484988 -0.000000 -0.000002 -0.000000 -0.000000 -0.000002 -0.000000 0.000001 0.000000 0.000001 -86.729148 7.130811 -11.447014 114.551500 12.967054 5.299484 -54.840521 -3.183580 -1.050241 -0.000000 0.000000 -0.000000 -0.000000 0.000000 -0.000000 -0.000002 0.000000 -0.000000 19.649957 0.263881 -0.987963 23.344279 0.351364 -1.997327 11.502992 0.754621 -1.882417 -24.493955 -8.537857 5.475420 -1.766595 4.041673 -4.413363 0.000000 0.000000 0.000000 0.000000 0.000000 0.000000 0.000000 0.000000 0.000000 -13.458194 -35.127834 -0.644440 -59.387539 -34.759082 -66.451662 48.817052 -18.928189 35.998485 -94.153044 37.946680 29.872389 52.602374 -19.174938 26.854321 -0.364213 14.250604 -7.342086 0.000001 -0.000002 0.000002 13.176025 -11.903767 -39.363067 1.337181 -5.911799 -73.467960 -0.000002 -0.000003 -0.000002 0.257355 -2.813940 -56.954543 -0.367523 -2.623949 -53.620701 0.000001 -0.000001 0.000002 -6.252985 -1.245448 -64.121871 -0.388595 -1.033181 -33.179932 -0.000000 0.000001 -0.000004 -11.397176 4.249776 -47.143041 -0.145578 -0.541558 -24.450153 -0.000001 0.000001 -0.000000 0.000001 0.000001 0.000003 25.239644 21.978825 -40.183051 -103.980136 6.644914 48.975212 -40.367214 9.574042 25.035112 -4.572632 -20.241120 -21.007230 55.149519 18.649577 -29.698199 -0.442564 -14.180478 7.312996 -0.000001 0.000001 0.000002 5.673328 7.585063 36.844325 1.050420 3.824470 68.900141 -0.000002 0.000000 0.000002 -0.125752 1.885994 45.000879 -1.168939 3.204723 68.417561 -0.000001 0.000000 0.000003 -5.312055 1.216604 58.509006 -0.745216 1.667542 48.011217 0.000000 -0.000001 0.000000 -7.756651 -9.376488 47.264089 -0.526230 1.541552 45.600368 -0.000000 0.000000 0.000000 -0.000001 0.000003 -0.000001 -0.000000 0.000000 0.000000 -0.000000 0.000000 0.000000 -0.000000 0.000000 0.000000 -0.000000 0.000000 0.000000 -0.000000 0.000000 0.000000 -0.000000 -0.000000 0.000000 -0.000000 0.000000 0.000000 -0.000000 0.000000 0.000000 -0.000000 -0.000000 0.000000 -0.000000 -0.000000 -0.000000 -0.000000 -0.000000 -0.000000 -0.000001 -0.000000 -0.000000 
-5.582634 49.969635 329.299713 23.870056 -2.703014 0.579011 -0.000000 0.000000 -0.000000 -88.762925 -12.813958 14.856922 114.554348 0.707667 -8.980158 -44.295761 13.742018 -11.135488 0.000000 0.000000 0.000000 0.000000 0.000000 -0.000000 0.000001 0.000000 0.000000 -87.330129 8.423618 -10.171275 113.464011 12.611800 5.314099 -53.456933 -3.936076 -0.702386 -0.000000 0.000001 -0.000000 -0.000000 0.000001 -0.000000 -0.000003 0.000000 -0.000000 19.553478 0.459853 -0.985894 23.158888 0.736358 -2.034015 11.316609 1.138929 -1.839162 -33.347675 -10.148393 5.219905 2.178693 4.049118 -5.050092 0.000001 0.000000 0.000000 0.000001 0.000000 0.000000 0.000001 0.000000 0.000000 -14.723970 -35.136047 -0.737373 -59.548540 -33.915052 -69.188430 52.011269 -10.004389 36.450814 -97.103952 40.116952 23.948744 52.602360 -19.174878 26.854311 -0.364163 14.250566 -7.342114 0.000001 -0.000001 -0.000000 13.175998 -11.903766 -39.363053 1.337196 -5.911786 -73.467960 -0.000001 -0.000001 0.000001 0.257348 -2.813916 -56.954567 -0.367492 -2.623955 -53.620677 0.000002 0.000000 0.000000 -6.252972 -1.245439 -64.121823 -0.388594 -1.033203 -33.179901 -0.000001 -0.000000 -0.000004 -11.397191 4.249777 -47.143065 -0.145568 -0.541518 -24.450117 -0.000001 0.000002 -0.000002 -0.000000 -0.000001 0.000001 26.614962 22.920872 -41.923039 -104.856074 7.017587 49.103562 -39.747661 7.905349 20.957628 -4.552726 -20.026632 -20.051284 55.149516 18.649577 -29.698206 -0.442561 -14.180480 7.312997 0.000002 0.000001 -0.000003 5.673326 7.585061 36.844325 1.050418 3.824472 68.900141 0.000001 -0.000000 0.000002 -0.125754 1.885993 45.000882 -1.168938 3.204725 68.417554 0.000000 0.000001 0.000002 -5.312056 1.216607 58.508999 -0.745218 1.667542 48.011217 -0.000002 0.000000 0.000000 -7.756650 -9.376488 47.264089 -0.526230 1.541553 45.600361 -0.000000 -0.000001 0.000000 0.000000 -0.000003 0.000001 0.000001 0.000000 0.000000 0.000001 0.000000 0.000000 0.000001 0.000000 0.000000 0.000001 0.000000 0.000000 0.000001 0.000000 0.000000 0.000000 -0.000000 0.000000 0.000001 0.000000 0.000000 0.000001 0.000000 0.000000 0.000000 -0.000000 0.000000 -0.000001 0.000000 0.000000 -0.000001 0.000000 0.000000 -0.000000 0.000000 -0.000000 
